<?xml version="1.0" standalone="no"?>
<!DOCTYPE svg PUBLIC "-//W3C//DTD SVG 20010904//EN"
 "http://www.w3.org/TR/2001/REC-SVG-20010904/DTD/svg10.dtd">
<svg version="1.0" xmlns="http://www.w3.org/2000/svg"
 width="1280.000000pt" height="884.000000pt" viewBox="0 0 1280.000000 884.000000"
 preserveAspectRatio="xMidYMid meet">
<metadata>
Created by potrace 1.15, written by Peter Selinger 2001-2017
</metadata>
<g transform="translate(0.000000,884.000000) scale(0.100000,-0.100000)"
fill="#000000" stroke="none">
<path d="M5941 8825 c-203 -46 -324 -180 -378 -419 -11 -51 -18 -152 -22 -356
-6 -245 -10 -291 -25 -328 l-19 -43 -62 6 c-71 8 -137 -3 -275 -47 -252 -80
-472 -219 -665 -419 -101 -105 -142 -159 -274 -368 -110 -172 -235 -350 -427
-606 l-142 -190 -159 -88 c-131 -73 -709 -363 -913 -459 l-55 -26 110 -6 c176
-11 485 -38 511 -45 23 -6 21 -10 -62 -126 -175 -246 -248 -380 -292 -544 -24
-89 -26 -112 -26 -321 -1 -229 3 -268 46 -462 l21 -98 -22 -432 c-12 -238 -24
-476 -28 -529 l-6 -97 -45 35 c-186 142 -698 277 -1392 369 -107 14 -196 28
-198 32 -15 41 -38 62 -97 95 -39 21 -104 60 -146 88 -122 79 -165 83 -262 18
-89 -58 -167 -165 -407 -549 -165 -264 -190 -314 -214 -432 -38 -186 5 -420
91 -488 54 -42 88 -20 142 90 82 166 285 336 572 480 l115 58 65 -13 c35 -8
119 -21 185 -29 236 -31 458 -98 959 -288 554 -211 839 -298 972 -298 184 0
382 259 576 750 65 164 177 498 177 525 0 24 17 17 40 -15 50 -70 135 -288
217 -556 l50 -160 -69 -105 c-129 -194 -255 -474 -433 -964 -48 -132 -115
-305 -147 -385 -87 -210 -125 -323 -143 -425 -33 -183 -29 -622 6 -647 16 -11
164 -4 364 17 240 26 587 31 760 10 94 -11 175 -15 218 -11 164 15 260 108
197 189 -27 34 -64 44 -190 52 -122 7 -261 33 -410 77 -124 35 -248 90 -256
113 -8 21 10 104 46 215 16 47 31 117 35 155 20 198 149 487 383 855 47 74
164 251 260 393 201 298 294 450 323 527 72 191 -50 554 -488 1453 -177 363
-171 337 -107 482 20 44 46 109 58 145 56 159 146 301 263 417 71 70 188 153
214 153 9 0 45 -13 80 -30 154 -71 281 -85 769 -84 212 0 403 4 425 8 42 8 37
10 133 -60 33 -24 68 -9 110 46 l35 45 376 6 c207 3 379 3 383 0 3 -3 61 -215
128 -471 115 -441 364 -1392 538 -2060 67 -256 231 -911 340 -1360 l28 -114
-47 -62 c-59 -79 -95 -155 -121 -257 -27 -105 -21 -268 12 -367 70 -209 238
-378 446 -446 78 -25 104 -29 209 -29 172 0 287 38 422 139 102 77 193 207
237 338 61 185 26 432 -85 590 -11 14 -19 29 -19 32 0 3 261 6 580 6 l581 0
-31 -45 c-72 -105 -110 -234 -110 -376 0 -118 19 -200 72 -309 33 -69 57 -101
127 -171 95 -95 157 -134 276 -175 72 -25 93 -28 210 -28 113 0 140 4 210 27
227 75 391 248 455 479 25 89 27 243 5 338 -44 184 -187 366 -355 448 -168 83
-44 76 -1524 80 -726 1 -1322 5 -1324 7 -5 5 -212 833 -212 847 0 4 843 8
1873 8 l1873 0 16 63 c54 206 473 1802 539 2051 43 165 77 301 76 302 -1 0
-1127 -3 -2502 -7 -1374 -4 -2500 -7 -2502 -5 -1 1 -49 180 -106 397 l-104
394 -441 3 -442 2 -5 25 c-3 14 -7 36 -10 49 -11 56 -115 86 -300 86 -72 0
-168 -5 -213 -10 -90 -12 -153 -4 -277 31 -205 60 -341 174 -362 305 -5 31 -1
40 44 87 199 211 287 496 306 986 l2 65 140 123 c76 67 152 128 168 134 32 13
50 10 157 -30 77 -28 141 -27 176 3 25 21 27 29 26 82 -1 47 2 62 19 77 18 17
20 27 15 63 -4 35 -2 44 9 44 22 0 35 33 35 88 l0 49 50 -5 c46 -4 50 -3 62
22 15 34 1 93 -42 181 -27 56 -28 61 -12 78 27 30 28 152 3 266 -12 52 -19 96
-18 98 2 2 26 -1 53 -6 27 -5 51 -8 52 -6 9 9 -21 114 -50 174 -42 90 -149
196 -243 243 -38 20 -108 45 -155 57 -111 29 -299 37 -389 16z m5653 -4452
c-4 -16 -26 -102 -50 -193 -23 -91 -59 -228 -79 -305 -20 -77 -41 -154 -46
-172 l-10 -31 -92 -6 c-51 -3 -311 -8 -579 -11 l-488 -5 0 370 0 370 423 3
c232 1 536 3 675 5 l252 2 -6 -27z m856 16 c0 -6 -41 -167 -91 -358 l-92 -348
-210 -6 c-299 -10 -457 -9 -457 3 0 13 181 703 187 713 7 12 663 9 663 -4z
m-3783 -41 c5 -24 49 -193 98 -376 48 -183 86 -335 84 -337 -2 -2 -180 -6
-395 -10 l-391 -8 -27 104 c-135 512 -172 660 -168 664 3 3 182 5 397 5 l392
0 10 -42z m1403 -327 l0 -369 -192 -6 c-106 -3 -339 -7 -518 -8 l-324 -3 -92
350 c-50 193 -94 362 -98 378 l-6 27 615 0 615 0 0 -369z m2150 -523 c-1 -2
-58 -221 -129 -488 l-128 -485 -332 -3 c-261 -2 -331 0 -331 10 0 7 56 225
124 483 l123 470 139 5 c153 6 534 11 534 8z m-860 -15 c0 -9 -228 -887 -241
-930 l-11 -33 -429 0 -429 0 0 475 0 475 48 1 c56 2 740 14 930 17 72 1 132
-1 132 -5z m-1290 -488 l0 -475 -372 2 -373 3 -121 463 c-77 295 -117 465
-110 468 6 2 148 5 316 7 168 1 385 3 483 5 l177 2 0 -475z m-1156 403 c15
-53 209 -799 222 -851 l6 -27 -397 2 -398 3 -114 435 c-62 239 -116 445 -119
457 -6 22 -4 22 103 26 59 1 237 4 395 5 l287 2 15 -52z m172 -2318 c127 -62
213 -177 237 -314 31 -180 -70 -368 -240 -449 -64 -30 -75 -32 -178 -32 -104
0 -114 2 -178 33 -167 82 -269 271 -238 443 21 121 82 219 175 284 87 60 145
76 257 72 85 -2 103 -6 165 -37z m2257 1 c124 -59 214 -180 238 -319 31 -173
-72 -363 -240 -445 -62 -30 -73 -32 -176 -32 -103 0 -114 2 -178 32 -266 126
-328 473 -122 679 92 92 178 125 315 121 83 -3 104 -8 163 -36z"/>
</g>
</svg>
